<svg width="18" height="18" viewBox="0 0 18 18" fill="none" xmlns="http://www.w3.org/2000/svg">
<path d="M13.5003 1.5C13.6307 1.5 13.7562 1.54528 13.856 1.62677L13.9127 1.67993L16.3669 4.32618L16.3899 4.35536C16.4661 4.45711 16.5006 4.57249 16.5006 4.68581L16.4995 6.12505C16.4995 6.87069 16.2155 7.55001 15.7499 8.06082L15.7494 15.9375C15.7494 16.2223 15.5377 16.4576 15.2632 16.4949L15.1869 16.5H2.81372C2.52895 16.5 2.2936 16.2884 2.25635 16.0138L2.25122 15.9375L2.25063 8.06082C1.82084 7.5893 1.54587 6.9742 1.50611 6.2959L1.50111 6.12505L1.50096 4.71823C1.49491 4.61524 1.51715 4.50929 1.57291 4.41235L1.62186 4.34075L1.65124 4.30645L4.08791 1.67993C4.17661 1.58432 4.29517 1.52311 4.42279 1.50536L4.50028 1.5H13.5003ZM11.3118 7.83156L11.3028 7.84487C10.7786 8.54579 9.94198 8.99948 8.9994 8.99948C8.05153 8.99948 7.21081 8.54068 6.68722 7.83304C6.16413 8.54068 5.32341 8.99948 4.37554 8.99948C4.02371 8.99948 3.68665 8.93627 3.37508 8.82059L3.37603 15.3743H4.5L4.50028 10.3133C4.50028 10.0285 4.7119 9.79314 4.98646 9.75589L5.06278 9.75076H8.43474C8.71952 9.75076 8.95486 9.96237 8.99211 10.2369L8.99724 10.3133L8.997 15.3743H14.6238L14.624 8.82115C14.3128 8.93648 13.9763 8.99948 13.625 8.99948C12.6765 8.99948 11.8353 8.54004 11.3118 7.83156ZM7.87153 10.8758H5.62528V15.3743H7.87153V10.8758ZM12.9413 9.75076C13.2261 9.75076 13.4614 9.96237 13.4987 10.2369L13.5038 10.3133V12.9398C13.5038 13.2245 13.2922 13.4599 13.0176 13.4971L12.9413 13.5023H10.3153C10.0305 13.5023 9.79513 13.2907 9.75789 13.0161L9.75275 12.9398V10.3133C9.75275 10.0285 9.96437 9.79314 10.2389 9.75589L10.3153 9.75076H12.9413ZM12.3783 10.8758H10.8775V12.3773H12.3783V10.8758ZM6.12478 5.2515H2.62603L2.62611 6.12505L2.63074 6.25333L2.65203 6.42675L2.67659 6.54396L2.71362 6.67295L2.75439 6.78382L2.7849 6.85433C2.80827 6.90523 2.83402 6.95482 2.862 7.00295L2.93921 7.12405L2.97992 7.18008L3.0765 7.29682L3.18283 7.40488L3.25502 7.46858L3.28658 7.49432C3.52248 7.68218 3.80801 7.81035 4.12034 7.856L4.25576 7.87045L4.37554 7.87448C5.30147 7.87448 6.05938 7.15515 6.12093 6.24483L6.12497 6.12505L6.12478 5.2515ZM10.7485 5.2515H7.24978L7.24997 6.12505C7.24997 7.01072 7.90811 7.74267 8.76201 7.85851L8.87962 7.87045L8.9994 7.87448C9.92532 7.87448 10.6832 7.15515 10.7448 6.24483L10.7488 6.12505L10.7485 5.2515ZM15.3738 5.2515H11.875L11.8756 6.12505C11.8756 7.01072 12.5337 7.74267 13.3876 7.85851L13.5052 7.87045L13.625 7.87448C14.0483 7.87448 14.4364 7.72419 14.739 7.47407L14.8063 7.41548L14.8931 7.3302L15.0028 7.20331C15.0433 7.15159 15.081 7.09753 15.1156 7.04137L15.1932 6.90134L15.2404 6.79787L15.2841 6.68155L15.3064 6.60985L15.3351 6.49581L15.3564 6.37764L15.3699 6.25258L15.3745 6.12505L15.3738 5.2515ZM6.7965 2.62425H4.74553L3.35203 4.1265H6.3345L6.7965 2.62425ZM10.0267 2.62425H7.97325L7.51125 4.1265H10.4887L10.0267 2.62425ZM13.2543 2.62425H11.2035L11.6655 4.1265H14.6478L13.2543 2.62425Z" fill="#A18200"/>
</svg>
